<?xml version="1.0" encoding="utf-8"?>
<?xml-stylesheet type="text/xsl" href="rss1.xsl"?>
<rss version="2.0" xmlns:atom="http://www.w3.org/2005/Atom" xmlns:content="http://purl.org/rss/1.0/modules/content/" xmlns:dc="http://purl.org/dc/elements/1.1/" xmlns:media="http://search.yahoo.com/mrss/">
<channel>
 <title>Getty</title>
 <link>http://www.gettyimg.com/</link>
 <atom:link href="http://www.gettyimg.com/" rel="self" type="application/rss+xml" />

 
                <item>
                <title><![CDATA[【Cinema Center】MOVIE - Miraculous World Paris: Tales of Shadybug and Claw Noir (2023) 1080p HULU WEB-DL DDP5.1 H.264-LAZY]]></title>
                <link><![CDATA[https://sharemania.us/threads/miraculous-world-paris-tales-of-shadybug-and-claw-noir-2023-1080p-hulu-web-dl-ddp5-1-h-264-lazy.233776/]]></link>
                <description><![CDATA[<article>
<blockquote class="messageText SelectQuoteContainer ugc baseHtml">
Miraculous: Tales of Ladybug &amp; Cat Noir:<img src="https://cdn1.edgedatg.com/aws/v2/dnow/MiraculousTalesofLadybugCatNoir/theme/2425136/98011d5ee6e56bf8824cca4d911dc351/1440x360-Q95_98011d5ee6e56bf8824cca4d911dc351.jpg" class="bbCodeImage LbImage" alt="[​IMG]" data-url="https://cdn1.edgedatg.com/aws/v2/dnow/MiraculousTalesofLadybugCatNoir/theme/2425136/98011d5ee6e56bf8824cca4d911dc351/1440x360-Q95_98011d5ee6e56bf8824cca4d911dc351.jpg" style=""><br>
<br>
<div class="bbCodeBlock bbCodeQuote">
<aside>
<blockquote class="quoteContainer"><div class="quote"><i><b>Synopsis:</b></i><br>
Superhero scientist Betterfly urgently jumps between parallel worlds in order to find this world’s version of Ladybug, and help stop the evil scientist version of Betterfly.</div><div class="quoteExpand">Click to expand...</div></blockquote>
</aside>
</div>
<div class="ToggleTriggerAnchor bbCodeSpoilerContainer">
<button type="button" class="button bbCodeSpoilerButton ToggleTrigger Tooltip JsOnly" data-target="> .SpoilerTarget"><span>Spoiler: <span class="SpoilerTitle">MediaInfo</span></span></button>
<div class="SpoilerTarget bbCodeSpoilerText">General<br>
Unique ID : 276684079838418452394358494801258352077 (0xD0276A5AE7BDCA3795542D9E173C0DCD)<br>
Complete name : Miraculous.World.Paris.Tales.of.Shadybug.and.Claw.Noir.2023.1080p.HULU.WEB-DL.DDP5.1.H.264-LAZY.mkv<br>
Format : Matroska<br>
Format version : Version 4<br>
File size : 1.65 GiB<br>
Duration : 47 min 54 s<br>
Overall bit rate : 4 926 kb/s<br>
Encoded date : UTC 2023-12-11 01:07:38<br>
Writing application : mkvmerge v81.0 ('Milliontown') 64-bit<br>
Writing library : libebml v1.4.4 + libmatroska v1.7.1<br>
<br>
Video<br>
ID : 1<br>
Format : AVC<br>
Format/Info : Advanced Video Codec<br>
Format profile : High@L4<br>
Format settings : CABAC / 4 Ref Frames<br>
Format settings, CABAC : Yes<br>
Format settings, Reference frames : 4 frames<br>
Codec ID : V_MPEG4/ISO/AVC<br>
Duration : 47 min 53 s<br>
Bit rate : 4 668 kb/s<br>
Width : 1 920 pixels<br>
Height : 1 080 pixels<br>
Display aspect ratio : 16:9<br>
Frame rate mode : Constant<br>
Frame rate : 23.976 (24000/1001) FPS<br>
Color space : YUV<br>
Chroma subsampling : 4:2:0<br>
Bit depth : 8 bits<br>
Scan type : Progressive<br>
Bits/(Pixel*Frame) : 0.094<br>
Stream size : 1.56 GiB (95%)<br>
Default : Yes<br>
Forced : No<br>
<br>
Audio<br>
ID : 2<br>
Format : E-AC-3<br>
Format/Info : Enhanced AC-3<br>
Commercial name : Dolby Digital Plus<br>
Codec ID : A_EAC3<br>
Duration : 47 min 54 s<br>
Bit rate mode : Constant<br>
Bit rate : 256 kb/s<br>
Channel(s) : 6 channels<br>
Channel layout : L R C LFE Ls Rs<br>
Sampling rate : 48.0 kHz<br>
Frame rate : 31.250 FPS (1536 SPF)<br>
Compression mode : Lossy<br>
Stream size : 87.7 MiB (5%)<br>
Language : English<br>
Service kind : Complete Main<br>
Default : Yes<br>
Forced : No<br>
<br>
Text<br>
ID : 3<br>
Format : UTF-8<br>
Codec ID : S_TEXT/UTF8<br>
Codec ID/Info : UTF-8 Plain Text<br>
Duration : 47 min 14 s<br>
Bit rate : 87 b/s<br>
Count of elements : 986<br>
Stream size : 30.2 KiB (0%)<br>
Language : English<br>
Default : No<br>
Forced : No</div>
</div><br>
Screenshots:<br>
<img src="https://i.imgur.com/jPBQ0bj.jpg" class="bbCodeImage LbImage" alt="[​IMG]" data-url="https://i.imgur.com/jPBQ0bj.jpg" style=""> <br>
<br>
<div class="bbCodeBlock bbCodeVfcHH HiddenContent">
<div class="attribution type">Hidden Content:</div>
<blockquote>You must either reply or click 'Like' to see the hidden information contained here.</blockquote>
</div>
<div class="messageTextEndMarker">&nbsp;</div>
</blockquote>
</article>]]></description>
                <author><![CDATA[LazyRips]]></author>
                </item>

                
                <item>
                <title><![CDATA[【Live Audios (lossy)】MP3 - Olivia Rodrigo: Live From SNL 2023 [UNOFFICIAL]]]></title>
                <link><![CDATA[https://sharemania.us/threads/olivia-rodrigo-live-from-snl-2023-unofficial.233777/]]></link>
                <description><![CDATA[<article>
<blockquote class="messageText SelectQuoteContainer ugc baseHtml">
<div style="text-align: center"><img src="https://www.bing.com/images/blob?bcid=SKw-NIuMf2oGUjiWi0pr2S.FOtKk.....04" class="bbCodeImage LbImage" alt="[​IMG]" data-url="https://www.bing.com/images/blob?bcid=SKw-NIuMf2oGUjiWi0pr2S.FOtKk.....04" style=""><br>
<br>
1. all american bitch (live from SNL)<br>
2. vampire (live from SNL)<br>
<br>
<div class="bbCodeBlock bbCodeVfcHH HiddenContent">
<div class="attribution type">Hidden Content:</div>
<blockquote>You must reply before you can see the hidden data contained here.</blockquote>
</div>flac version: <a href="https://sharemania.us/threads/olivia-rodrigo-live-from-snl-2023-unofficial-flac.233778/" class="internalLink">FLAC - Olivia Rodrigo: Live From SNL 2023 [UNOFFICIAL FLAC] | ShareMania.US</a>​</div>
<div class="messageTextEndMarker">&nbsp;</div>
</blockquote>
</article>]]></description>
                <author><![CDATA[taytayswift133]]></author>
                </item>

                
                <item>
                <title><![CDATA[【Live Audios (lossless)】FLAC - Olivia Rodrigo: Live From SNL 2023 [UNOFFICIAL FLAC]]]></title>
                <link><![CDATA[https://sharemania.us/threads/olivia-rodrigo-live-from-snl-2023-unofficial-flac.233778/]]></link>
                <description><![CDATA[<article>
<blockquote class="messageText SelectQuoteContainer ugc baseHtml">
<div style="text-align: center"><img src="https://www.bing.com/images/blob?bcid=SKw-NIuMf2oGUjiWi0pr2S.FOtKk.....04" class="bbCodeImage LbImage" alt="[​IMG]" data-url="https://www.bing.com/images/blob?bcid=SKw-NIuMf2oGUjiWi0pr2S.FOtKk.....04" style=""><br>
<br>
1. all american bitch (live from SNL)<br>
2. vampire (live from SNL)<br>
<br>
<div class="bbCodeBlock bbCodeVfcHH HiddenContent">
<div class="attribution type">Hidden Content:</div>
<blockquote>You must reply before you can see the hidden data contained here.</blockquote>
</div>mp3 version: <a href="https://sharemania.us/threads/olivia-rodrigo-live-from-snl-2023-unofficial.233777/" class="internalLink">MP3 - Olivia Rodrigo: Live From SNL 2023 [UNOFFICIAL] | ShareMania.US</a>​</div>
<div class="messageTextEndMarker">&nbsp;</div>
</blockquote>
</article>]]></description>
                <author><![CDATA[taytayswift133]]></author>
                </item>

                </channel></rss>